<?xml version="1.0" encoding="utf-8"?>
<!-- Generator: Adobe Illustrator 27.4.1, SVG Export Plug-In . SVG Version: 6.00 Build 0)  -->
<svg version="1.1" id="Layer_1" xmlns="http://www.w3.org/2000/svg" xmlns:xlink="http://www.w3.org/1999/xlink" x="0px" y="0px"
	 viewBox="0 0 22 22" style="enable-background:new 0 0 22 22;" xml:space="preserve">
<g>
	<path d="M10.62,7.69c-0.1-0.02-0.14,0.01-0.14,0.12c0,0.08,0.01,0.16,0.01,0.24c0,0,0,0,0,0c0.01,0.13,0.01,0.26,0.02,0.39
		c0,0.07,0.03,0.12,0.11,0.09c0.11-0.03,0.18-0.14,0.18-0.25c0-0.11,0-0.23,0.01-0.34C10.82,7.76,10.8,7.73,10.62,7.69z"/>
	<path d="M12.02,15.91c-0.2-0.33-0.33-0.68-0.35-1.07c0-0.11-0.03-0.23-0.05-0.34c-0.01-0.04-0.04-0.07-0.06-0.1
		c-0.03,0.02-0.06,0.04-0.09,0.07c-0.11,0.12-0.21,0.24-0.31,0.37c-0.03,0.04-0.04,0.11-0.04,0.16c0.01,0.08,0.04,0.15,0.06,0.22
		c0.13,0.49,0.05,0.97-0.01,1.45c-0.03,0.26-0.05,0.52-0.06,0.78c0,0.25,0.02,0.49,0.03,0.74c0,0.11,0.04,0.16,0.16,0.16
		c0.15,0,0.29,0,0.44,0c0.15,0,0.31,0.01,0.46,0c0.05,0,0.11-0.03,0.15-0.07c0.08-0.07,0.14-0.16,0.22-0.24
		c0.15-0.14,0.24-0.31,0.31-0.51c0.03-0.08,0.02-0.15-0.03-0.23c-0.11-0.15-0.24-0.3-0.33-0.47C12.34,16.53,12.2,16.21,12.02,15.91z
		"/>
	<path d="M11,0C4.92,0,0,4.92,0,11s4.92,11,11,11s11-4.92,11-11S17.08,0,11,0z M19.05,11.13c-0.28,0.58-0.74,0.94-1.37,1.08
		c-0.1,0.02-0.16-0.01-0.16-0.12c-0.05-0.56-0.34-0.99-0.76-1.34c-0.43-0.36-0.92-0.62-1.4-0.89c-0.7-0.39-1.42-0.75-2.13-1.13
		c-0.05-0.03-0.11-0.06-0.17-0.07c-0.04-0.01-0.09-0.02-0.11,0c-0.02,0.02-0.03,0.08-0.02,0.11C12.95,8.98,13,9.19,13.03,9.4
		c0.09,0.57,0.18,1.15,0.26,1.72c0.03,0.19,0.01,0.38,0.01,0.58c0,0.03-0.01,0.06-0.02,0.08c-0.09,0.17-0.08,0.35-0.08,0.54
		c0.01,0.28-0.04,0.54-0.28,0.72c-0.04,0.03-0.06,0.1-0.07,0.16c0,0.4,0.01,0.8,0,1.2c-0.01,0.26-0.05,0.53-0.06,0.79
		c-0.01,0.08,0,0.19,0.04,0.25c0.33,0.49,0.51,1.03,0.67,1.59c0.03,0.1,0.09,0.19,0.13,0.29c0.05,0.11,0.11,0.21,0.16,0.32
		c0.04,0.08,0.01,0.15-0.06,0.2c-0.07,0.05-0.16,0.1-0.23,0.15c-0.11,0.08-0.22,0.17-0.32,0.26c-0.01,0.01-0.02,0.06-0.01,0.07
		c0.02,0.02,0.05,0.02,0.08,0.02c0.28,0,0.55,0,0.83,0c0.14,0,0.18,0.03,0.18,0.17c0,0.06,0,0.12,0,0.18c0,0.11-0.05,0.15-0.15,0.15
		c-0.24,0-0.48,0-0.72,0c-0.86,0-1.71,0-2.57-0.01c-0.57,0-1.13-0.01-1.7-0.02c-0.12,0-0.16-0.04-0.16-0.16
		c0-0.31-0.03-0.33,0.32-0.32c0.03,0,0.06,0,0.09,0c0.09,0,0.14-0.04,0.14-0.14c0.01-0.14,0.05-0.2,0.19-0.22
		c0.33-0.05,0.54-0.25,0.62-0.56c0.04-0.16,0.05-0.34,0.04-0.51c-0.02-0.41-0.06-0.82-0.11-1.23c-0.02-0.18-0.03-0.37-0.12-0.55
		c-0.15-0.29-0.1-0.59,0.01-0.89c0.21-0.58,0.5-1.11,0.8-1.65c0.09-0.16,0.18-0.32,0.27-0.48c0.05-0.09,0.04-0.15-0.03-0.23
		c-0.11-0.12-0.19-0.27-0.2-0.43c-0.03-0.36-0.06-0.71-0.09-1.07c-0.02-0.27-0.05-0.54-0.07-0.82c-0.01-0.09-0.06-0.12-0.14-0.09
		c-0.08,0.03-0.16,0.05-0.24,0.08C10.13,9.69,9.82,9.5,9.82,9.14c0-0.36,0.04-0.72,0.06-1.08C9.89,7.91,9.9,7.76,9.9,7.61
		c0-0.05-0.06-0.12-0.11-0.14C8.86,7.1,7.93,6.74,7,6.39C6.6,6.23,6.18,6.16,5.75,6.11c-0.17-0.02-0.34-0.04-0.5-0.05
		C4.71,6.03,4.34,6.28,4.1,6.75c-0.03,0.06-0.08,0.1-0.12,0.16c-0.04-0.05-0.1-0.1-0.13-0.16c-0.27-0.48-0.39-0.99-0.3-1.53
		C3.65,4.57,4,4.1,4.64,3.88c0.19-0.07,0.4-0.11,0.61-0.12c0.16-0.01,0.33,0.04,0.49,0.08C6.44,4,7.15,4.16,7.85,4.36
		c1.4,0.4,2.77,0.89,4.12,1.43c1.62,0.66,3.21,1.41,4.71,2.31c0.75,0.45,1.48,0.95,2.14,1.52c0.2,0.17,0.34,0.37,0.38,0.63
		c0,0.01,0.02,0.02,0.02,0.04c0,0.12,0,0.23,0,0.35C19.16,10.81,19.12,10.98,19.05,11.13z"/>
</g>
</svg>
